<?xml version="1.0" encoding="UTF-8" standalone="no"?><!DOCTYPE svg PUBLIC "-//W3C//DTD SVG 1.1//EN" "http://www.w3.org/Graphics/SVG/1.1/DTD/svg11.dtd"><svg width="100%" height="100%" viewBox="0 0 1090 850" version="1.1" xmlns="http://www.w3.org/2000/svg" xmlns:xlink="http://www.w3.org/1999/xlink" xml:space="preserve" xmlns:serif="http://www.serif.com/" style="fill-rule:evenodd;clip-rule:evenodd;stroke-linejoin:round;stroke-miterlimit:1.41421;"><g id="Page-1"><path id="path3003" d="M132.872,768.968c13.639,-0.054 27.333,0.054 40.972,0.161c10.377,-25.193 21.716,-50.011 32.52,-74.99c12.677,0.161 25.353,0.053 38.03,-0.107c-11.607,24.443 -20.86,50.011 -33.322,74.027c37.441,1.123 75.096,2.033 112.484,-0.481c37.976,-4.493 82.103,-30.382 80.659,-73.6c12.784,0.054 25.567,0 38.404,0.054c-11.125,24.871 -21.77,49.957 -32.842,74.882c49.958,0.321 99.915,-0.106 149.873,0.108c1.765,-4.332 5.188,-13.051 6.9,-17.384c-36.532,-0.214 -73.01,0 -109.489,-0.161c4.119,-8.344 8.237,-16.688 12.409,-24.978c31.343,0.481 62.688,0.107 94.032,0.321c2.727,-5.562 5.402,-11.233 7.969,-16.849c-31.611,-0.214 -63.169,-0.161 -94.78,0.053c1.711,-5.295 3.476,-10.643 5.241,-15.938c46,-0.053 92,0.374 137.999,-0.161c-10.858,25.032 -21.555,50.172 -32.788,75.097c13.8,0 27.599,-0.001 41.399,0.16c11.339,-24.925 21.395,-50.439 32.948,-75.257c12.356,0.214 24.712,0.16 37.068,0.107c-11.232,24.871 -21.717,50.064 -33.056,74.829c13.104,0.161 26.155,0.107 39.26,0.053c9.039,-22.892 19.523,-45.25 28.83,-68.035c16.849,22.572 33.804,45.037 50.278,67.876c14.067,0.267 28.135,0.427 42.202,0.106c12.837,-32.413 29.381,-66.133 42.592,-98.386c0,0 -424.831,-0.137 -693.109,-0.137c-14.656,32.681 -28.616,65.681 -42.683,98.63Zm686.782,-74.775c-6.686,15.297 -13.479,30.541 -20.646,45.625c-10.216,-15.725 -21.556,-30.649 -32.414,-45.893c17.704,0.054 35.356,0.054 53.06,0.268Zm-463.952,-0.054c4.361,0 7.628,6.685 5.991,11.821c-1.638,5.135 -8.933,26.744 -21.021,34.178c-23.909,17.117 -54.451,10.698 -81.783,11.982c8.451,-19.363 16.902,-38.725 25.46,-58.034c23.802,0.214 66.992,0.053 71.353,0.053Z" style="fill:#050625;"/><path id="path6" d="M853.276,88.279c-35.891,-6.204 -73.599,-5.883 -107.671,8.452c30.06,19.63 59.157,40.597 89.164,60.227c-2.621,14.495 2.514,34.605 -12.249,43.645c-16.902,11.285 -31.878,26.156 -49.904,35.302c-76.862,-1.39 -153.241,12.998 -225.878,37.709c-49.636,16.902 -103.659,25.352 -147.037,56.589c-98.471,62.367 -198.921,121.685 -296.429,185.496c37.762,4.332 75.257,11.339 113.126,14.067c27.707,-11.019 52.419,-28.937 80.821,-38.244c67.929,2.086 135.805,6.687 203.52,12.838c59.051,5.456 118.422,4.866 177.579,1.657c-14.548,11.874 -29.204,23.589 -43.646,35.57c24.016,28.295 48.728,56.002 72.048,84.885c-13.585,4.493 -27.921,8.664 -38.03,19.415c6.641,12.181 13.883,25.336 19.979,35.357c-0.629,-5.034 -2.112,-13.402 -4.064,-30.207c7.755,-0.384 39.769,-6.89 55.775,-5.063c4.525,0.516 15.589,3.424 24.407,5.993c5.149,1.5 16.26,5.859 21.807,9.185c-1.203,2.563 -5.693,12.063 -6.962,15.548c8.847,-4.373 13.044,-9.407 26.521,-21.713c15.024,2.449 26.139,3.834 29.894,4.492c-0.238,1.873 -2.468,7.89 -8.547,11.112c-1.517,0.804 -10.196,4.752 4.876,1.693c5.027,-2.354 18.44,-7.675 23.468,-10.029c0.695,-4.921 1.39,-9.788 2.139,-14.709c-24.605,-15.084 -54.237,-15.458 -80.713,-24.926c-17.811,-17.062 -31.718,-37.761 -48.621,-55.626c14.549,-11.928 28.884,-24.123 43.808,-35.623c16.634,19.202 32.038,39.741 51.026,56.75c23.481,14.87 48.46,27.333 72.476,41.347c-1.016,18.292 -10.163,38.991 2.246,55.358c8.719,-0.32 17.331,-1.39 25.942,-2.728c-5.188,-4.974 -10.537,-9.84 -15.779,-14.654c4.761,-11.714 8.398,-23.91 14.281,-35.089c11.393,-11.928 26.423,-19.575 39.207,-29.898c6.632,3.316 13.212,6.631 19.844,9.947c-3.316,-8.772 -6.793,-17.436 -10.377,-26.048c-7.381,1.658 -14.709,3.477 -21.93,5.723c6.793,-7.167 13.212,-14.709 19.951,-21.93c4.226,1.551 12.624,4.546 16.849,6.044c-3.744,-9.146 -7.595,-18.186 -11.66,-27.225c-29.044,14.441 -46.214,43.539 -69.107,65.415c-20.004,-11.981 -39.955,-24.016 -60.173,-35.676c7.916,-28.883 -0.214,-63.489 21.716,-87.13c27.171,-37.067 54.717,-73.921 80.926,-111.737c22.572,-40.918 34.715,-87.612 38.833,-133.986c-2.781,-32.948 -13.799,-64.614 -19.523,-97.188c-2.781,-19.523 -15.939,-35.088 -28.669,-49.262c-13.72,-12.131 -31.437,-18.116 -49.367,-18.401c-12.268,-0.195 -24.638,2.279 -35.893,7.276Zm-95.368,542.846c-10.269,-2.514 -22.893,-2.461 -29.526,-11.981c-13.104,-15.191 -25.621,-30.862 -39.206,-45.571c4.065,-3.316 8.13,-6.58 12.248,-9.843c18.56,22.679 38.031,44.556 56.484,67.395Z" style="fill:#050625;"/></g></svg>